<?xml version="1.0" standalone="no"?>
<!DOCTYPE svg PUBLIC "-//W3C//DTD SVG 20010904//EN"
 "http://www.w3.org/TR/2001/REC-SVG-20010904/DTD/svg10.dtd">
<svg version="1.0" xmlns="http://www.w3.org/2000/svg"
 width="512.000000pt" height="512.000000pt" viewBox="0 0 512.000000 512.000000"
 preserveAspectRatio="xMidYMid meet">

<g transform="translate(0.000000,512.000000) scale(0.100000,-0.100000)"
fill="#E1624F" stroke="none">
<path d="M4732 5100 c-174 -46 -377 -162 -622 -357 -47 -37 -236 -216 -420
-399 l-335 -331 -123 27 c-68 16 -125 30 -127 32 -3 2 0 20 5 39 30 103 2 195
-88 291 -90 95 -145 122 -242 123 -103 0 -137 -21 -290 -171 l-125 -123 -115
25 c-62 13 -115 26 -117 27 -1 2 9 25 22 52 35 69 35 171 0 242 -32 63 -139
167 -202 196 -66 30 -161 29 -223 -2 -27 -14 -107 -84 -197 -174 l-152 -150
-348 76 c-192 42 -360 77 -374 77 -13 0 -42 -9 -64 -19 -46 -21 -219 -194
-235 -235 -29 -77 2 -178 68 -219 20 -13 465 -264 987 -557 523 -293 952 -535
954 -537 3 -2 -182 -191 -410 -421 -228 -229 -464 -473 -524 -542 -60 -69
-117 -125 -125 -124 -8 0 -252 27 -541 59 -471 52 -530 57 -560 45 -44 -19
-166 -135 -190 -182 -31 -61 -22 -127 24 -177 12 -13 197 -111 412 -218 215
-107 392 -197 394 -199 3 -2 -16 -48 -42 -102 -67 -142 -87 -197 -87 -247 0
-112 92 -205 203 -205 53 0 132 28 259 90 48 24 90 42 92 39 2 -2 90 -177 196
-389 106 -212 202 -396 214 -408 49 -54 118 -67 184 -33 57 29 168 150 182
198 11 35 5 107 -44 549 -31 280 -59 520 -61 534 -3 21 11 38 102 115 59 50
304 285 545 524 241 239 439 432 441 430 2 -2 244 -431 537 -954 293 -522 544
-967 557 -987 41 -66 142 -97 219 -68 41 16 214 189 235 235 10 22 19 51 19
65 0 13 -34 181 -77 373 l-76 348 150 152 c90 90 160 170 174 197 31 62 32
157 2 223 -29 63 -133 170 -196 202 -71 35 -173 35 -242 0 -27 -13 -50 -23
-52 -22 -1 2 -13 54 -27 117 l-24 115 127 130 c108 111 132 141 151 191 28 74
23 148 -13 220 -35 69 -151 177 -213 198 -54 18 -139 21 -180 6 -15 -6 -29 -8
-31 -6 -3 3 -17 60 -33 128 l-27 123 326 330 c180 182 365 377 411 435 226
283 370 571 370 740 0 204 -156 301 -388 240z m197 -172 c21 -19 23 -28 18
-82 -13 -161 -169 -435 -400 -701 -137 -158 -2446 -2459 -2608 -2598 -301
-260 -589 -462 -823 -577 -160 -78 -189 -88 -212 -69 -24 19 -12 57 65 214
142 287 375 605 706 965 236 256 2442 2450 2550 2536 319 253 623 388 704 312z
m-3046 -312 c18 -7 53 -36 80 -64 42 -46 47 -56 47 -97 0 -39 -5 -52 -39 -88
l-39 -41 -177 38 -176 39 98 100 c85 86 136 125 166 127 4 0 22 -6 40 -14z
m62 -467 c677 -149 1238 -272 1249 -276 15 -4 -53 -77 -335 -359 -195 -195
-357 -354 -360 -354 -10 0 -1961 1098 -1973 1110 -7 7 14 34 64 86 64 64 79
74 100 69 14 -4 579 -128 1255 -276z m884 196 c16 -8 49 -37 75 -66 38 -42 46
-58 46 -89 0 -21 -8 -47 -17 -59 l-18 -21 -173 38 -172 37 64 71 c90 98 137
120 195 89z m1325 -2425 l276 -1255 -75 -75 c-65 -65 -77 -73 -88 -60 -8 8
-254 443 -547 965 -294 523 -541 962 -549 977 l-16 28 355 355 c285 285 356
352 362 338 4 -10 131 -583 282 -1273z m125 984 c107 -97 106 -138 -9 -257
-43 -45 -80 -80 -82 -77 -2 3 -21 82 -41 175 l-37 170 21 18 c12 9 38 17 59
17 31 0 47 -8 89 -46z m276 -945 c66 -62 82 -103 62 -151 -8 -18 -60 -77 -114
-131 l-100 -99 -38 178 -39 177 42 38 c35 34 48 39 87 39 42 0 51 -5 100 -51z
m-3795 -125 c234 -26 427 -48 429 -50 2 -1 -30 -49 -72 -106 -57 -79 -154
-223 -173 -256 -1 -2 -174 83 -384 188 l-383 191 44 45 c39 41 48 45 79 40 19
-3 226 -26 460 -52z m1078 -1106 l51 -463 -43 -44 -44 -44 -192 384 c-106 211
-188 385 -182 387 14 4 235 156 296 203 28 21 53 39 57 39 3 0 28 -208 57
-462z"/>
</g>
</svg>
