<svg width="512" height="512" viewBox="0 0 512 512" fill="none" xmlns="http://www.w3.org/2000/svg">
<g clip-path="url(#clip0_4104_365)">
<path d="M198 4.47035e-07C202.911 2.28003 205.478 5.23662 208 10C209.659 15.8639 208.879 20.7028 206 26C202.227 30.7586 197.692 34.874 193.312 39.0625C192.12 40.2245 190.929 41.3879 189.74 42.5527C186.842 45.3849 183.926 48.1974 181 51C182.776 51.4116 182.776 51.4116 184.588 51.8315C188.428 52.7875 191.94 54.1692 195.594 55.6953C204.129 58.7298 213.182 61.2496 222 58C235.226 49.8767 245.931 36.4121 255.724 24.5655C260.169 19.3442 264.02 15.9289 271 15C277.284 15.3903 281.719 17.209 286 22C288.421 26.421 289.403 30.5562 288.625 35.5625C286.052 44.0769 277.72 50.4155 271.562 56.5C270.831 57.227 270.099 57.9541 269.346 58.7031C267.566 60.4711 265.784 62.2367 264 64C270.568 66.1223 277.249 67.0979 284.062 68.125C285.221 68.3068 286.379 68.4885 287.572 68.6758C288.694 68.8472 289.816 69.0187 290.973 69.1953C291.986 69.3502 292.999 69.505 294.043 69.6646C299.684 70.6063 299.684 70.6063 304.732 68.6899C305.187 68.0833 305.643 67.4766 306.113 66.8516C306.895 65.8452 306.895 65.8452 307.692 64.8186C308.227 64.0947 308.762 63.3708 309.312 62.625C310.458 61.1456 311.605 59.6678 312.754 58.1914C313.585 57.1088 313.585 57.1088 314.434 56.0044C317.724 51.7929 321.342 47.891 325 44C325.656 43.2794 326.312 42.5588 326.988 41.8164C349.603 17.9242 384.479 1.53577 417.402 -0.177002C442.878 -0.618613 464.943 1.49921 485 19C485.968 19.7721 486.936 20.5443 487.933 21.3398C497.561 29.3766 503.525 40.5076 508 52C508.434 53.0545 508.869 54.1089 509.316 55.1953C518.603 82.5697 511.253 117.878 499.132 143.282C486.268 169.201 468.017 190.639 444.101 206.98C441.796 208.798 441.796 208.798 441.59 211.355C441.704 212.29 441.819 213.225 441.937 214.188C442.069 215.309 442.2 216.43 442.336 217.586C442.552 219.058 442.774 220.529 443 222C443.152 223.007 443.305 224.014 443.462 225.052C444.583 232.378 445.771 239.692 447 247C449.215 247.228 449.215 247.228 451.012 245.12C451.824 244.259 452.636 243.398 453.473 242.512C454.373 241.578 455.273 240.644 456.201 239.682C457.627 238.194 459.049 236.702 460.459 235.198C471.092 223.897 471.092 223.897 479 223C485.289 223.407 489.71 225.2 494 230C496.421 234.421 497.403 238.556 496.625 243.563C494.317 251.184 487.917 256.288 481.87 261.094C462.977 275.226 462.977 275.226 452.993 295.354C452.717 306.89 456.166 318.233 460 329C460.33 329.99 460.66 330.98 461 332C461.756 331.223 462.512 330.446 463.291 329.645C466.11 326.754 468.942 323.876 471.779 321.001C473.002 319.758 474.223 318.51 475.439 317.259C477.192 315.457 478.958 313.669 480.726 311.883C481.264 311.324 481.802 310.766 482.356 310.191C486.302 306.243 489.809 304.237 495.527 303.812C501.178 304.252 504.467 305.444 508.625 309.332C511.697 313.059 512.314 316.065 512.375 320.875C512.403 321.883 512.432 322.891 512.461 323.93C511.288 331.739 504.296 336.738 498.824 341.844C497.008 343.581 495.193 345.321 493.381 347.062C490.536 349.79 487.684 352.504 484.795 355.184C481.998 357.786 479.253 360.434 476.512 363.094C475.644 363.878 474.776 364.661 473.883 365.469C470.34 368.978 468.17 371.337 467.651 376.405C467.878 380.008 468.354 383.45 469 387C469.222 388.638 469.444 390.277 469.664 391.916C469.907 393.39 470.156 394.863 470.41 396.336C470.681 397.995 470.951 399.654 471.221 401.312C471.639 403.842 472.062 406.371 472.491 408.899C476.729 433.996 476.172 458.256 461 480C453.274 490.398 444.738 498.213 433.832 505.168C431.077 506.889 431.077 506.889 428.949 508.613C423.698 512.605 418.736 512.526 412.269 512.469C406.69 511.669 404.171 509.407 400.793 505.07C399.582 503.428 398.381 501.779 397.187 500.125C395.85 498.305 394.511 496.486 393.172 494.668C392.484 493.73 391.796 492.792 391.088 491.826C387.759 487.321 384.346 482.882 380.937 478.437C375.305 471.072 369.768 463.644 364.289 456.164C359.927 450.223 355.479 444.352 351 438.5C345.351 431.119 339.793 423.68 334.302 416.182C329.813 410.067 325.233 404.025 320.625 398C302.865 374.756 302.865 374.756 304 363C305.274 358.562 307.768 355.82 311.75 353.562C316.572 351.5 320.827 351.004 325.872 352.588C332.283 355.44 335.605 359.96 339.625 365.562C340.314 366.496 341.004 367.429 341.714 368.39C343.824 371.25 345.912 374.125 348 377C349.216 378.649 350.435 380.296 351.656 381.941C355.695 387.39 359.702 392.862 363.709 398.334C371.047 408.35 378.478 418.286 386.025 428.146C391.132 434.829 396.137 441.582 401.109 448.365C405.331 454.118 409.638 459.796 414.012 465.434C415.696 467.607 417.358 469.795 419 472C424.866 470.85 428.383 467.148 431.902 462.473C443.315 445.269 441.402 428.693 438.262 409.244C437.967 407.375 437.673 405.506 437.38 403.637C436.587 398.595 435.782 393.555 434.975 388.516C434.131 383.233 433.297 377.949 432.462 372.665C431.06 363.803 429.651 354.942 428.237 346.083C426.422 334.704 424.617 323.324 422.817 311.943C421.267 302.154 419.714 292.366 418.159 282.577C417.66 279.431 417.161 276.284 416.661 273.138C415.879 268.203 415.093 263.27 414.305 258.336C414.016 256.523 413.728 254.71 413.44 252.897C413.049 250.429 412.654 247.961 412.259 245.493C412.145 244.771 412.031 244.048 411.914 243.304C411.45 240.428 410.923 237.77 410 235C401.916 241.303 393.903 247.681 385.963 254.163C381.699 257.637 377.4 261.057 373.062 264.437C367.802 268.539 362.637 272.746 357.5 277C351.811 281.711 346.072 286.34 340.247 290.88C334.321 295.508 328.499 300.261 322.672 305.012C319.024 307.984 315.351 310.923 311.672 313.855C308.877 316.099 306.098 318.361 303.32 320.625C297.024 325.757 290.692 330.836 284.29 335.835C279.816 339.337 275.402 342.908 271 346.5C264.718 351.626 258.378 356.669 251.988 361.66C251.002 362.432 250.016 363.204 249 364C248.104 364.553 247.209 365.106 246.286 365.677C243.639 367.857 243.639 367.857 243.806 371.353C243.987 372.744 244.199 374.132 244.433 375.516C244.542 376.291 244.651 377.067 244.763 377.866C245.013 379.614 245.275 381.359 245.548 383.103C246.031 386.199 246.477 389.298 246.918 392.4C248.114 400.75 249.362 409.093 250.616 417.434C257.751 464.999 257.751 464.999 244.207 483.441C242.423 485.489 240.58 487.44 238.653 489.353C236.527 491.471 234.436 493.622 232.34 495.77C230.624 497.514 228.906 499.258 227.187 501C226.35 501.85 225.514 502.701 224.651 503.577C223.453 504.776 223.453 504.776 222.23 506C221.513 506.722 220.795 507.444 220.055 508.187C216.203 511.584 213.223 512.31 208.125 512.375C207.117 512.403 206.109 512.432 205.07 512.461C197.744 511.361 193.768 505.713 189.437 500.25C188.832 499.501 188.227 498.751 187.604 497.979C186.348 496.422 185.095 494.863 183.845 493.3C182.103 491.129 180.348 488.97 178.586 486.816C172.091 478.878 165.703 470.863 159.391 462.779C156.871 459.556 154.341 456.341 151.812 453.125C150.881 451.94 149.95 450.755 149.019 449.57C148.353 448.722 147.687 447.874 147 447C142.576 447.462 139.899 450.467 136.75 453.312C117.87 469.877 101.434 481.316 75.4681 480.191C63.3344 479.252 52.0441 472.007 43.8475 463.289C32.798 449.6 30.4648 435.096 31.9999 418C35.1477 400.874 48.7645 387.597 59.7186 374.828C60.8169 373.521 60.8169 373.521 61.9374 372.187C62.879 371.095 62.879 371.095 63.8397 369.98C65.1508 368.101 65.1508 368.101 65.0702 366.047C63.4236 362.898 60.7381 361.129 57.9374 359.062C56.6537 358.086 55.3712 357.108 54.0897 356.129C53.418 355.619 52.7462 355.108 52.0541 354.583C48.6465 351.957 45.3265 349.227 41.9999 346.5C37.0384 342.449 32.0473 338.443 26.9999 334.5C25.2845 333.154 23.57 331.807 21.8563 330.459C20.5391 329.424 19.2206 328.39 17.9012 327.357C15.7185 325.643 13.5459 323.916 11.3749 322.187C10.3617 321.397 10.3617 321.397 9.328 320.59C4.61027 316.808 0.570501 313.222 -0.531373 307C-0.521061 306.01 -0.510748 305.02 -0.500123 304C-0.515592 302.515 -0.515592 302.515 -0.531373 301C0.892854 292.957 8.45137 287.176 14.0062 281.623C15.6104 280.015 17.1978 278.391 18.785 276.766C24.6578 270.828 30.485 265.796 37.9999 262C38.7597 261.592 39.5195 261.184 40.3024 260.764C58.8174 252.361 84.2804 259.723 103.6 262.694C109.961 263.671 116.325 264.628 122.69 265.573C124.895 265.904 127.097 266.246 129.299 266.589C130.646 266.791 131.993 266.994 133.34 267.196C134.509 267.375 135.678 267.555 136.882 267.741C139.927 267.994 142.099 267.929 145 267C146.883 264.968 148.455 263.043 150.062 260.812C151.019 259.537 151.979 258.263 152.941 256.992C153.438 256.334 153.934 255.677 154.446 254.999C157.478 251.099 160.758 247.409 164.027 243.708C166.718 240.628 169.024 237.584 171 234C161.812 226.808 152.601 219.654 143.247 212.678C137.696 208.535 132.19 204.333 126.687 200.125C119.237 194.432 111.729 188.83 104.165 183.29C97.3221 178.266 90.5765 173.12 83.8358 167.961C78.1009 163.579 72.3223 159.265 66.4999 155C58.8784 149.418 51.3548 143.716 43.8534 137.974C37.9473 133.461 31.9934 129.021 25.9999 124.625C23.7075 122.939 21.4157 121.251 19.1244 119.563C17.7445 118.548 16.3634 117.534 14.9808 116.522C13.1673 115.191 11.3636 113.848 9.56238 112.5C8.57367 111.768 7.58496 111.036 6.56628 110.281C2.99809 107.11 0.556667 103.987 -0.742311 99.3516C-1.24572 89.0169 4.16167 82.0124 9.99988 74C10.6908 73.0461 11.3818 72.0922 12.0936 71.1094C26.0589 52.9087 44.0766 41.5281 66.6874 37.3125C68.1225 37.18 69.5608 37.0802 70.9999 37C71.9886 36.9428 72.9773 36.8856 73.996 36.8267C87.3409 36.4586 100.193 38.8402 113.312 41.0625C116.811 41.6488 120.31 42.2313 123.811 42.8053C125.973 43.1605 128.135 43.5229 130.295 43.8936C131.264 44.0538 132.233 44.2141 133.232 44.3792C134.083 44.5235 134.934 44.6678 135.811 44.8165C138.178 45.1598 138.178 45.1598 141 44C142.613 42.4148 142.613 42.4148 144.189 40.4468C147.928 36.0422 151.899 31.939 155.98 27.8516C156.716 27.113 157.451 26.3744 158.208 25.6134C159.749 24.0676 161.291 22.5232 162.835 20.98C165.197 18.6158 167.55 16.2436 169.904 13.8711C171.408 12.3641 172.913 10.8576 174.418 9.35156C175.119 8.64327 175.82 7.93498 176.542 7.20523C177.2 6.5505 177.858 5.89577 178.536 5.22119C179.11 4.64576 179.684 4.07032 180.275 3.47745C185.526 -1.02044 191.392 -0.708601 198 4.47035e-07ZM421.312 32.6875C420.446 32.78 419.579 32.8725 418.687 32.9678C395.878 35.6346 374.341 44.9714 357 60C355.84 60.9436 355.84 60.9436 354.656 61.9063C347.029 68.3446 340.99 76.0193 334.78 83.7803C333.066 85.918 331.337 88.0433 329.601 90.1641C324.046 96.9552 318.563 103.797 313.163 110.712C309.121 115.876 304.982 120.958 300.836 126.039C297.345 130.325 293.902 134.643 290.5 139C286.018 144.74 281.44 150.397 276.836 156.039C273.345 160.325 269.902 164.643 266.5 169C262.018 174.74 257.44 180.397 252.836 186.039C249.345 190.325 245.902 194.643 242.5 199C238.017 204.741 233.439 210.399 228.834 216.041C225.361 220.303 221.942 224.601 218.562 228.938C213.88 234.942 209.05 240.817 204.194 246.681C200.089 251.649 196.075 256.679 192.113 261.762C188.091 266.913 183.966 271.978 179.833 277.041C176.361 281.303 172.942 285.601 169.562 289.937C164.88 295.942 160.05 301.817 155.194 307.681C151.089 312.649 147.075 317.679 143.113 322.762C139.631 327.221 136.077 331.617 132.5 336C128.45 340.962 124.442 345.952 120.5 351C116.558 356.048 112.55 361.038 108.5 366C103.036 372.698 97.6672 379.465 92.347 386.278C90.513 388.622 88.67 390.96 86.8273 393.297C84.9972 395.622 83.173 397.95 81.3495 400.28C80.4494 401.427 79.547 402.573 78.6425 403.716C75.7015 407.435 72.8297 411.196 69.9999 415C69.3309 415.862 68.6618 416.725 67.9725 417.613C64.7134 422.247 63.5524 425.424 64.1874 431.125C65.7927 437.867 69.0074 442.533 74.9218 446.187C79.9738 448.451 84.7203 448.515 89.9999 447C96.2423 443.533 101.749 438.902 107.187 434.312C108.679 433.069 110.171 431.827 111.664 430.586C112.763 429.673 112.763 429.673 113.884 428.741C116.904 426.256 119.976 423.84 123.062 421.437C128.092 417.519 133.06 413.532 138 409.5C143.523 404.992 149.092 400.552 154.711 396.164C159.184 392.662 163.599 389.092 168 385.5C173.523 380.992 179.092 376.552 184.711 372.164C189.184 368.662 193.599 365.092 198 361.5C203.523 356.992 209.092 352.552 214.711 348.164C219.184 344.662 223.599 341.092 228 337.5C233.523 332.992 239.092 328.552 244.711 324.164C249.184 320.662 253.599 317.092 258 313.5C263.523 308.992 269.092 304.552 274.711 300.164C279.184 296.662 283.599 293.092 288 289.5C293.523 284.992 299.092 280.552 304.711 276.164C309.184 272.662 313.599 269.092 318 265.5C323.523 260.992 329.092 256.552 334.711 252.164C339.184 248.662 343.599 245.092 348 241.5C353.523 236.992 359.092 232.552 364.711 228.164C369.876 224.121 374.96 219.982 380.041 215.834C384.303 212.361 388.601 208.942 392.937 205.563C398.938 200.883 404.81 196.056 410.67 191.203C415.19 187.467 419.753 183.796 424.375 180.188C448.843 161.042 467.637 140.597 476 110C476.318 108.869 476.637 107.739 476.965 106.574C480.836 90.5372 481.984 70.8759 473.422 56.3164C466.031 45.114 456.807 37.3717 443.812 33.543C436.216 32.0764 428.991 31.8491 421.312 32.6875ZM40.1483 89.0898C39.5798 90.0354 39.5798 90.0354 38.9999 91C40.1196 94.3593 40.7359 94.8091 43.5155 96.793C44.2612 97.3324 45.0069 97.8719 45.7753 98.4277C46.5919 99.0085 47.4085 99.5892 48.2499 100.188C49.9959 101.45 51.7406 102.715 53.4843 103.98C54.3937 104.64 55.3031 105.299 56.2401 105.978C60.7102 109.253 65.1037 112.627 69.4999 116C76.1187 121.067 82.7749 126.074 89.4999 131C97.1273 136.587 104.656 142.293 112.164 148.039C117.899 152.421 123.677 156.735 129.5 161C137.121 166.582 144.645 172.284 152.146 178.026C158.826 183.13 165.576 188.133 172.357 193.102C178.984 197.967 185.515 202.947 192 208C196.024 205.04 199.01 201.707 202 197.75C202.967 196.494 203.936 195.239 204.906 193.984C205.41 193.331 205.914 192.679 206.433 192.006C209.071 188.629 211.787 185.316 214.5 182C218.55 177.038 222.558 172.048 226.5 167C230.982 161.26 235.559 155.603 240.164 149.961C244.111 145.116 247.987 140.22 251.831 135.293C255.37 130.771 258.989 126.319 262.625 121.875C267.935 115.38 273.04 108.767 278 102C274.975 100.311 272.325 99.5649 268.91 99.0271C267.882 98.8619 266.854 98.6966 265.795 98.5264C264.672 98.3528 263.549 98.1793 262.392 98.0005C261.204 97.8116 260.016 97.6226 258.793 97.4279C255.532 96.9106 252.27 96.3992 249.007 95.8904C245.568 95.3524 242.129 94.807 238.69 94.2624C232.149 93.2277 225.606 92.1999 219.064 91.1745C211.723 90.0236 204.383 88.8646 197.043 87.7051C174.914 84.21 152.785 80.7164 130.638 77.3328C124.264 76.3571 117.898 75.3428 111.535 74.2969C109.938 74.0363 108.341 73.7758 106.744 73.5156C104.374 73.1294 102.005 72.7404 99.6368 72.3438C75.6938 68.344 57.1781 69.8685 40.1483 89.0898ZM46.6991 296.047C44.7547 297.995 42.855 299.967 40.9999 302C45.0525 306.218 49.4077 309.929 53.9374 313.625C54.6845 314.237 55.4316 314.85 56.2013 315.481C62.5426 320.663 68.9685 325.731 75.4261 330.767C79.3111 333.811 83.154 336.907 86.9999 340C91.0542 336.103 94.6065 331.945 98.1249 327.562C98.6875 326.865 99.2501 326.168 99.8297 325.45C101.558 323.304 103.28 321.153 105 319C105.531 318.336 106.062 317.671 106.609 316.987C108.097 315.119 109.581 313.248 111.062 311.375C111.503 310.82 111.943 310.265 112.397 309.694C115.113 306.236 117.578 302.667 120 299C107.878 296.75 95.7238 294.892 83.5106 293.21C80.5794 292.806 77.649 292.397 74.7186 291.986C72.8463 291.726 70.9739 291.466 69.1014 291.207C68.2297 291.085 67.3579 290.963 66.4597 290.838C65.654 290.727 64.8482 290.617 64.0179 290.503C62.959 290.357 62.959 290.357 61.8787 290.208C55.7582 289.531 51.1688 292.07 46.6991 296.047ZM208.797 394.457C208.153 394.987 207.509 395.518 206.846 396.064C206.154 396.641 205.462 397.218 204.75 397.812C203.296 399.01 201.842 400.207 200.387 401.402C199.652 402.007 198.918 402.611 198.161 403.234C194.994 405.822 191.784 408.355 188.562 410.875C187.991 411.322 187.419 411.77 186.83 412.231C185.221 413.489 183.611 414.744 182 416C181.052 416.739 180.105 417.477 179.129 418.238C177.087 419.827 175.045 421.415 173 423C174.556 428.036 177.607 431.475 180.937 435.437C182.121 436.869 183.303 438.301 184.484 439.734C185.077 440.45 185.669 441.167 186.279 441.904C188.792 444.965 191.247 448.069 193.687 451.187C194.127 451.749 194.567 452.31 195.02 452.889C199.717 458.898 204.363 464.945 209 471C217.006 464.655 217.006 464.655 222 456C222.022 442.699 219.322 429.25 217.437 416.125C217.104 413.78 216.772 411.435 216.439 409.09C215.631 403.392 214.818 397.696 214 392C211.398 392 210.78 392.807 208.797 394.457Z" fill="#E5245E"/>
<path d="M413.394 64.6953C425.838 68.4972 436.757 76.5867 443.017 88.1201C447.817 97.597 450.231 106.428 448 117C446.366 121.201 444.449 124.089 441 127C434.977 129.008 428.26 129.05 422.5 126.375C416.715 120.879 415.284 115.817 413.906 108.121C412.87 104.552 411.6 102.638 409 100C406.963 98.859 406.963 98.859 404.75 98.3125C403.965 98.0792 403.18 97.8459 402.371 97.6055C400.871 97.2224 399.363 96.8671 397.848 96.5508C392.467 95.4251 389.81 93.8103 386 90C382.907 85.127 383.404 79.5581 384 74C389.595 61.9486 402.04 62.3696 413.394 64.6953Z" fill="#E5245E"/>
<path d="M505.129 306.27C509.158 309.592 511.699 312.483 512.336 317.805C512.349 318.818 512.362 319.831 512.375 320.875C512.403 321.883 512.432 322.891 512.461 323.93C511.283 331.777 504.009 337.249 498.641 342.555C497.736 343.456 496.832 344.358 495.9 345.287C493.51 347.667 491.116 350.044 488.719 352.418C486.269 354.848 483.824 357.284 481.379 359.719C476.591 364.484 471.798 369.244 467 374C466.34 373.67 465.68 373.34 465 373C464.473 370.289 464.473 370.289 464.062 366.625C463.902 365.264 463.739 363.903 463.574 362.543C463.486 361.813 463.397 361.082 463.306 360.33C462.655 355.376 461.802 350.45 460.965 345.524C460.777 344.381 460.777 344.381 460.586 343.215C460.473 342.546 460.36 341.877 460.244 341.187C460.163 340.465 460.083 339.744 460 339C459.87 338.056 459.741 337.111 459.607 336.138C460.161 331.71 462.62 329.555 465.695 326.578C466.28 325.992 466.865 325.406 467.468 324.802C468.707 323.568 469.953 322.341 471.206 321.122C473.115 319.26 474.996 317.373 476.875 315.48C478.084 314.282 479.295 313.086 480.508 311.891C481.067 311.329 481.627 310.768 482.204 310.189C488.503 304.112 497.118 301.492 505.129 306.27Z" fill="#E5245E"/>
<path d="M198 3.27826e-07C202.911 2.28003 205.478 5.23662 208 10C209.667 15.8885 208.807 20.6569 206 26C202.868 30.2894 199.165 34.0758 195.434 37.8423C193.691 39.6219 192.011 41.4496 190.326 43.2852C182.394 51.5757 182.394 51.5757 176.51 52.6184C172.879 52.3941 169.548 51.7956 166 51C163.65 50.6641 161.298 50.3398 158.945 50.0273C156.671 49.6699 154.397 49.3067 152.125 48.9375C150.948 48.7512 149.771 48.565 148.559 48.373C145.705 47.9206 142.852 47.4629 140 47C141.329 43.0911 142.924 40.7014 145.835 37.7922C146.623 36.9982 147.411 36.2042 148.223 35.3862C149.075 34.5433 149.927 33.7004 150.805 32.832C151.68 31.956 152.556 31.08 153.458 30.1774C155.782 27.8562 158.113 25.5422 160.447 23.2308C161.874 21.8131 163.297 20.3906 164.718 18.9661C167.45 16.2282 170.188 13.4975 172.93 10.7695C174.202 9.49612 174.202 9.49612 175.499 8.19698C176.294 7.41244 177.088 6.6279 177.906 5.81958C178.601 5.12851 179.297 4.43743 180.014 3.72542C185.4 -0.953705 191.144 -0.735233 198 3.27826e-07Z" fill="#E5245E"/>
<path d="M283.375 19.0625C287.203 23.3461 289.036 27.4965 288.977 33.3008C288.302 37.6391 286.853 40.4874 283.895 43.7109C281.932 45.8714 279.979 48.0248 278.093 50.2527C266.372 64.0952 266.372 64.0952 259.215 66.0156C255.848 65.8315 252.753 65.3619 249.48 64.5615C246.482 63.8827 243.478 63.4282 240.438 62.9766C234.277 62.0617 228.137 61.0564 222 60C223.418 56.7941 225.126 54.6039 227.573 52.1052C228.67 50.979 228.67 50.979 229.789 49.8301C230.582 49.0289 231.375 48.2278 232.191 47.4023C233.011 46.5717 233.83 45.741 234.674 44.8851C236.41 43.1298 238.15 41.3774 239.892 39.6277C242.542 36.9579 245.17 34.2676 247.799 31.5762C249.491 29.8711 251.184 28.1673 252.879 26.4648C253.657 25.6617 254.436 24.8585 255.238 24.031C263.886 15.4521 272.504 12.419 283.375 19.0625Z" fill="#E5245E"/>
<path d="M491.375 227.062C495.203 231.346 497.036 235.497 496.977 241.301C495.478 250.939 486.523 257.635 479.949 264.219C478.839 265.334 478.839 265.334 477.707 266.471C476.158 268.025 474.607 269.578 473.055 271.13C470.671 273.516 468.296 275.91 465.92 278.305C464.409 279.818 462.898 281.331 461.387 282.844C460.32 283.922 460.32 283.922 459.231 285.021C458.573 285.676 457.915 286.331 457.237 287.006C456.369 287.876 456.369 287.876 455.484 288.763C454 290 454 290 452 290C451.282 285.126 450.571 280.251 449.864 275.376C449.623 273.719 449.38 272.063 449.136 270.406C448.785 268.019 448.439 265.631 448.094 263.242C447.984 262.508 447.875 261.773 447.762 261.016C446.203 250.111 446.203 250.111 448.968 246.255C449.875 245.342 450.781 244.429 451.715 243.488C452.204 242.993 452.693 242.498 453.197 241.989C454.235 240.947 455.28 239.913 456.332 238.885C457.922 237.327 459.478 235.74 461.033 234.146C470.317 224.822 479.061 219.537 491.375 227.062Z" fill="#E5245E"/>
</g>
<defs>
<clipPath id="clip0_4104_365">
<rect width="512" height="512" fill="white"/>
</clipPath>
</defs>
</svg>
